<svg xmlns="http://www.w3.org/2000/svg" viewBox="0 0 512 512">
  <rect width="512" height="512" rx="96" fill="#0f3350"/>
  <circle cx="256" cy="266" r="170" fill="#4fc3f7"/>
  <path d="M86 214h340M76 266h360M86 318h340" stroke="#8fdcff" stroke-width="10" fill="none"/>
  <path d="M256 96c-52 52-52 288 0 340M256 96c52 52 52 288 0 340" stroke="#8fdcff" stroke-width="10" fill="none"/>
  <path d="M126 200c26-20 46 7 72-7s33-33 59-20 20 39 46 39 33-20 46-7c-7 72-66 125-125 125-66 0-118-53-125-118 10-13 20-20 27-12z" fill="#66bb6a"/>
  <circle cx="256" cy="266" r="170" fill="none" stroke="#0f3350" stroke-width="14"/>
  <path d="M356 132l52-30-15 55 44 22-55 11-4 48-29-44-52 11 33-37z" fill="#fff" stroke="#0f3350" stroke-width="12" stroke-linejoin="round"/>
</svg>
