<svg xmlns="http://www.w3.org/2000/svg" viewBox="0 0 640 360" role="img" aria-label="はんたいの言葉のサムネイル">
  <defs>
    <linearGradient id="bg" x1="0" x2="1" y1="0" y2="1">
      <stop offset="0" stop-color="#fff0ba"/>
      <stop offset="1" stop-color="#bfeaff"/>
    </linearGradient>
    <filter id="shadow" x="-20%" y="-20%" width="140%" height="140%">
      <feDropShadow dx="0" dy="10" stdDeviation="10" flood-color="#79512a" flood-opacity=".22"/>
    </filter>
  </defs>
  <rect width="640" height="360" fill="url(#bg)"/>
  <circle cx="92" cy="78" r="42" fill="#fff7d6" opacity=".86"/>
  <rect x="56" y="50" width="528" height="260" rx="18" fill="#fffaf0" stroke="#fff" stroke-width="10" filter="url(#shadow)"/>
  <rect x="86" y="78" width="210" height="178" rx="14" fill="#cdefff"/>
  <path d="M86 210c47-35 89-35 130 0 31-18 58-18 80 0v46H86z" fill="#95cf7e"/>
  <circle cx="154" cy="146" r="42" fill="#ffd8bd"/>
  <path d="M114 136c12-42 66-52 86-12 4 9 5 17 3 25-22-21-55-23-89-13z" fill="#4b3528"/>
  <circle cx="141" cy="148" r="5" fill="#3d2a20"/>
  <circle cx="168" cy="148" r="5" fill="#3d2a20"/>
  <path d="M142 179c13-12 28-12 41 0" fill="none" stroke="#9b443b" stroke-width="7" stroke-linecap="round"/>
  <ellipse cx="238" cy="224" rx="44" ry="20" fill="#fff" stroke="#b8d6e5" stroke-width="7"/>
  <path d="M220 220c13-15 31-15 45 0" fill="none" stroke="#6e7f4b" stroke-width="12" stroke-linecap="round"/>
  <text x="338" y="132" font-family="Hiragino Maru Gothic ProN, BIZ UDPGothic, sans-serif" font-size="42" font-weight="900" fill="#614222">まずい</text>
  <path d="M374 166h92" stroke="#ef6f6c" stroke-width="12" stroke-linecap="round"/>
  <path d="M450 142l38 30-38 30" fill="none" stroke="#ef6f6c" stroke-width="12" stroke-linecap="round" stroke-linejoin="round"/>
  <rect x="332" y="210" width="188" height="58" rx="12" fill="#e5f7eb" stroke="#4caf8f" stroke-width="5"/>
  <text x="364" y="250" font-family="Hiragino Maru Gothic ProN, BIZ UDPGothic, sans-serif" font-size="33" font-weight="900" fill="#247252">おいしい</text>
</svg>
